<svg xmlns="http://www.w3.org/2000/svg" width="2645.469" height="754.03" viewBox="0 0 2645.469 754.03">
  <defs>
    <style>
      .cls-1, .cls-4 {
        fill: #ffc000;
      }

      .cls-1, .cls-2 {
        fill-rule: evenodd;
      }

      .cls-2 {
        fill: #1b2e38;
      }

      .cls-3 {
        font-size: 320px;
        text-anchor: middle;
        fill: #fff;
        font-family: Mondapick;
      }
    </style>
  </defs>
  <path id="Color_Fill_3" data-name="Color Fill 3" class="cls-1" d="M177.846,1123H746.878v0.59q6.465,0.285,12.932.59v0.58h4.115v0.59h4.115v0.59h2.939v0.59h3.527v0.59c1.764,0.19,3.528.39,5.291,0.59v0.58h2.351v0.59H784.5v0.59h2.351v0.59H789.2v0.59h1.764v0.59h1.763v0.58h2.352v0.59h1.763V1133h1.764v0.59h1.763v0.59h1.176v0.59c1.176,0.19,2.352.39,3.527,0.58v0.59h1.176v0.59h1.763v0.59h1.176v0.59h1.764v0.59h1.175v0.58h1.764v0.59c1.175,0.39,2.351.79,3.527,1.18v0.59h1.175v0.59h1.176v0.58l5.291,1.77c0.2,0.39.392,0.78,0.588,1.18h1.175v0.58H828v0.59h1.176v0.59h1.175v0.59h1.176c0.2,0.39.392,0.78,0.588,1.18l3.527,1.17c0.2,0.39.392,0.79,0.588,1.18h1.175v0.59h1.176l0.588,1.17h1.176c0.2,0.4.392,0.79,0.588,1.18h1.175c0.2,0.39.392,0.78,0.588,1.18h1.176l0.588,1.17h1.175c0.2,0.4.392,0.79,0.588,1.18H847.4c0.2,0.39.392,0.78,0.588,1.18h1.175c0.392,0.58.784,1.17,1.176,1.76h1.176c0.2,0.39.392,0.79,0.588,1.18h1.175c0.588,0.78,1.176,1.57,1.764,2.35h1.175c0.588,0.79,1.176,1.57,1.764,2.35h1.176c0.587,0.79,1.175,1.57,1.763,2.36H862.1q1.762,2.055,3.527,4.12H866.8q5,5.295,9.993,10.59l4.7,4.11v1.18l3.527,2.94v1.18c0.979,0.78,1.959,1.57,2.939,2.35v1.18c0.784,0.59,1.568,1.17,2.351,1.76v1.18c0.588,0.39,1.176.78,1.764,1.18v1.17c0.588,0.39,1.176.79,1.763,1.18v1.18l1.764,1.17v1.18c0.392,0.19.784,0.39,1.176,0.59v1.17c0.391,0.2.783,0.4,1.175,0.59v1.18c0.392,0.19.784,0.39,1.176,0.59v1.17c0.392,0.2.784,0.4,1.176,0.59v1.18c0.391,0.19.783,0.39,1.175,0.59,0.2,0.78.392,1.57,0.588,2.35,0.392,0.2.784,0.39,1.176,0.59,0.2,0.78.392,1.57,0.588,2.35,0.392,0.2.783,0.39,1.175,0.59,0.392,1.18.784,2.35,1.176,3.53,0.392,0.2.784,0.39,1.176,0.59v1.17h0.588v1.18h0.587v1.18h0.588v1.17h0.588v1.18H910.3v1.18h0.588v1.17h0.588v1.18h0.587v1.18h0.588c0.392,1.17.784,2.35,1.176,3.53h0.588v1.76H915c0.2,0.79.392,1.57,0.588,2.36h0.587v1.76h0.588c0.2,0.78.392,1.57,0.588,2.35h0.588c0.2,1.18.392,2.36,0.588,3.53h0.588v1.18H919.7q3.528,12.06,7.055,24.12v2.94h0.587v2.94h0.588v2.94h0.588v3.53h0.588v3.53H929.7v4.71h0.588v5.88h0.587v10c0.915,3.25.588,8.75,0.588,12.95v551.82H405.341c-21,.01-48.735,1.99-65.25-2.94h-3.527v-0.59h-2.94v-0.58h-2.351v-0.59h-2.939q-10.875-3.24-21.75-6.47v-0.59h-1.176v-0.59h-1.764v-0.59c-0.979-.19-1.959-0.39-2.939-0.59v-0.59h-1.176v-0.58h-1.763v-0.59c-0.784-.2-1.568-0.39-2.351-0.59v-0.59h-1.764v-0.59h-1.176v-0.59c-0.783-.19-1.567-0.39-2.351-0.58v-0.59h-1.176v-0.59h-1.175v-0.59H286.6v-0.59h-1.176v-0.58h-1.175v-0.59H283.07v-0.59h-1.176v-0.59h-1.176v-0.59h-1.175v-0.59h-1.176l-0.588-1.17c-1.175-.4-2.351-0.79-3.527-1.18-0.2-.39-0.392-0.78-0.588-1.18h-1.175v-0.58h-1.176v-0.59c-0.588-.2-1.176-0.4-1.764-0.59-0.195-.39-0.391-0.79-0.587-1.18-0.784-.19-1.568-0.39-2.352-0.59l-0.588-1.17h-1.175l-1.176-1.77H262.5v-0.59c-0.587-.19-1.175-0.39-1.763-0.58-0.2-.4-0.392-0.79-0.588-1.18h-1.176q-0.588-.885-1.175-1.77h-1.176c-0.392-.58-0.784-1.17-1.176-1.76h-1.175c-0.588-.78-1.176-1.57-1.764-2.35h-1.176c-0.587-.79-1.175-1.57-1.763-2.36h-1.176l-2.351-2.94H244.86q-2.939-3.24-5.878-6.47h-1.176c-0.392-.59-0.784-1.18-1.176-1.76q-2.057-1.77-4.115-3.53v-1.18l-6.466-5.88v-1.18l-3.527-2.94v-1.18c-0.784-.59-1.568-1.18-2.351-1.76v-1.18c-0.588-.39-1.176-0.78-1.764-1.18v-1.17c-0.588-.4-1.176-0.79-1.763-1.18v-1.18l-1.764-1.17v-1.18c-0.392-.2-0.784-0.39-1.176-0.59v-1.17c-0.587-.4-1.175-0.79-1.763-1.18v-1.18c-0.392-.19-0.784-0.39-1.176-0.59v-1.17c-0.392-.2-0.784-0.4-1.175-0.59L209,1786.6h-0.588c-0.2-.78-0.392-1.57-0.588-2.35-0.392-.2-0.784-0.39-1.176-0.59-0.2-.78-0.392-1.57-0.588-2.35-0.391-.2-0.783-0.39-1.175-0.59v-1.18H204.3v-1.17c-0.392-.2-0.784-0.39-1.176-0.59v-1.18h-0.588v-1.17h-0.587v-1.18H201.36v-1.18h-0.588v-1.17c-0.392-.2-0.784-0.4-1.176-0.59-0.2-.79-0.392-1.57-0.588-2.36h-0.587c-0.392-1.17-.784-2.35-1.176-3.53h-0.588v-1.76h-0.588v-1.18h-0.588c-0.392-1.17-.784-2.35-1.175-3.53h-0.588v-1.76H193.13v-1.18h-0.588l-0.588-2.94h-0.588v-1.76h-0.587v-1.18h-0.588c-0.392-1.77-.784-3.53-1.176-5.3h-0.588v-1.76h-0.588v-1.77h-0.587v-1.76h-0.588v-1.77h-0.588v-1.76h-0.588c-0.392-2.16-.784-4.31-1.176-6.47h-0.588c-0.195-1.77-.391-3.53-0.587-5.3h-0.588v-2.35h-0.588v-2.94h-0.588v-2.94h-0.588q-0.588-6.18-1.175-12.36h-0.588l-0.588-8.82v-6.47c-1.614-5.74-.587-14.97-0.588-21.77V1123Z" transform="translate(-177.531 -1123)"/>
  <path id="Color_Fill_2" data-name="Color Fill 2" class="cls-2" d="M680.232,1690.35H266.844L406.53,1358.19H366.236l-19.7,32.26H274.9l54.621-130.54H730.077s37.655,2.67,68.053,24.2c19.607,13.88,34.058,41.34,40.592,61.83,8.648,27.12,1.55,64.06-13.725,89.12-13.093,21.48-28.658,32.45-28.658,32.45s24.533,20.19,33.727,48.1c9.067,27.51,2.9,62.56-11.043,89.31-13.692,26.28-42.277,54.31-71.037,68.4A175.315,175.315,0,0,1,680.232,1690.35ZM496.67,1357.29h81.483l68.948-75.87-33.131,75.87h99.99s17.276,1.63,26.564,10.16c5.764,5.29,5.493,15.85,5.074,22.4-0.428,6.7-7.1,19.85-14.625,25.69a53.414,53.414,0,0,1-21.789,9.56H582.034l-13.73,28.67H669.785L451.9,1690.35l93.125-179.82H465.031l82.976-117.1L439.362,1512.92Zm-77.007,382.65,0.6-49.59H470.4Zm229.826-228.81-74.022,81.24h117s16.539-.03,29.848-10.75c8.668-6.98,15.561-22.95,17.013-31.07,1.613-9.01-2.893-22.04-10.745-28.97-9.063-8-21.789-9.26-21.789-9.26Z" transform="translate(-177.531 -1123)"/>
  <text id="truckbet" class="cls-3" transform="matrix(1.696, 0, 0, 1.696, 1776.102, 562.724)">truck<tspan class="cls-4">bet</tspan></text>
</svg>
