<svg xmlns="http://www.w3.org/2000/svg" width="86" height="85" viewBox="0 0 86 85">
  <defs>
    <style>
      .cls-1 {
        fill: #ffc000;
      }

      .cls-1, .cls-2 {
        fill-rule: evenodd;
      }

      .cls-2 {
        fill: #1b2e38;
      }
    </style>
  </defs>
  <path id="Color_Fill_3" data-name="Color Fill 3" class="cls-1" d="M0,0H48C58.1,0,69.887-1.1,76,3l3,4,3,2c3.739,5.349,3,14.821,3,24V85H16l-1-2H12V82H10L4,75H3V73c-3.624-3.866-3-13.379-3-21V0Z"/>
  <path id="Color_Fill_2" data-name="Color Fill 2" class="cls-2" d="M57.235,63.852H10.374L26.209,26.257H21.641l-2.233,3.651h-8.12L17.48,15.134H62.886A17.116,17.116,0,0,1,70.6,17.873c2.222,1.571,3.861,4.679,4.6,7,0.98,3.07.176,7.25-1.556,10.087A13.241,13.241,0,0,1,70.4,38.631a13.582,13.582,0,0,1,3.823,5.443c1.028,3.114.328,7.081-1.252,10.109a19.5,19.5,0,0,1-8.053,7.742A19.914,19.914,0,0,1,57.235,63.852Zm-20.808-37.7h9.237l7.816-8.587-3.756,8.587H61.059a6.075,6.075,0,0,1,3.011,1.149,3.285,3.285,0,0,1,.575,2.536,5.118,5.118,0,0,1-1.658,2.907,6.067,6.067,0,0,1-2.47,1.082H46.1l-1.556,3.246h11.5l-24.7,26.776L41.908,43.5H32.841l9.406-13.253L29.931,43.77ZM27.7,69.464l0.068-5.612H33.45Zm26.053-25.9-8.391,9.2H58.622a6,6,0,0,0,3.383-1.217,7.009,7.009,0,0,0,1.929-3.516,3.95,3.95,0,0,0-1.218-3.279,4.923,4.923,0,0,0-2.47-1.048Z"/>
</svg>
